HIERARCHY
ROOT Hips
{
     OFFSET 1.88212 96.90440 -13.34250
     CHANNELS 6 Xposition Yposition Zposition Zrotation Xrotation Yrotation
     JOINT Spine
     {
          OFFSET 0.00000 11.89050 0.00000
          CHANNELS 3 Zrotation Xrotation Yrotation
          JOINT Spine1
          {
               OFFSET -0.00000 25.65740 0.12766
               CHANNELS 3 Zrotation Xrotation Yrotation
               JOINT HEad
               {
                    OFFSET 0.00000 8.73416 0.01134
                    CHANNELS 3 Zrotation Xrotation Yrotation
                    End Site
                    {
                         OFFSET -0.29000 12.77420 2.51395
                    }
               }
               JOINT LeftShoulder1
               {
                    OFFSET 8.99000 -0.36225 -0.22000
                    CHANNELS 3 Zrotation Xrotation Yrotation
                    JOINT LeftArm
                    {
                         OFFSET 10.28270 -0.00338 0.32212
                         CHANNELS 3 Zrotation Xrotation Yrotation
                         JOINT LeftForeArm
                         {
                              OFFSET 32.76690 0.09914 -1.42434
                              CHANNELS 3 Zrotation Xrotation Yrotation
                              JOINT LeftHand
                              {
                                   OFFSET 27.56430 0.08536 1.02216
                                   CHANNELS 3 Zrotation Xrotation Yrotation
                                   End Site
                                   {
                                        OFFSET 16.74430 -0.60000 1.50291
                                   }
                              }
                         }
                    }
               }
               JOINT RightShoulder
               {
                    OFFSET -8.99000 -0.36225 -0.22000
                    CHANNELS 3 Zrotation Xrotation Yrotation
                    JOINT RightArm
                    {
                         OFFSET -10.28270 -0.00338 0.32212
                         CHANNELS 3 Zrotation Xrotation Yrotation
                         JOINT RightForeArm
                         {
                              OFFSET -32.89710 0.09914 -1.42434
                              CHANNELS 3 Zrotation Xrotation Yrotation
                              JOINT RightHand
                              {
                                   OFFSET -27.49210 0.08536 1.02216
                                   CHANNELS 3 Zrotation Xrotation Yrotation
                                   End Site
                                   {
                                        OFFSET -16.63120 -0.60000 1.50291
                                   }
                              }
                         }
                    }
               }
          }
     }
     JOINT LeftUpLeg
     {
          OFFSET 8.94580 -8.66707 0.10165
          CHANNELS 3 Zrotation Xrotation Yrotation
          JOINT LeftLeg
          {
               OFFSET 0.00000 -44.42270 1.37270
               CHANNELS 3 Zrotation Xrotation Yrotation
               JOINT LeftFoot
               {
                    OFFSET -0.25355 -42.09240 -1.46059
                    CHANNELS 3 Zrotation Xrotation Yrotation
                    JOINT LeftToes
                    {
                         OFFSET -0.04000 -4.41509 8.49910
                         CHANNELS 3 Zrotation Xrotation Yrotation
                         End Site
                         {
                              OFFSET 0.08000 -0.04745 9.77979
                         }
                    }
               }
          }
     }
     JOINT RightUpLeg
     {
          OFFSET -8.94580 -8.66707 0.10165
          CHANNELS 3 Zrotation Xrotation Yrotation
          JOINT RightLeg
          {
               OFFSET 0.00000 -44.42270 1.37270
               CHANNELS 3 Zrotation Xrotation Yrotation
               JOINT RightFoot
               {
                    OFFSET 0.25355 -42.09240 -1.46059
                    CHANNELS 3 Zrotation Xrotation Yrotation
                    JOINT RightToes
                    {
                         OFFSET 0.04000 -4.41509 8.49910
                         CHANNELS 3 Zrotation Xrotation Yrotation
                         End Site
                         {
                              OFFSET -0.08000 -0.13745 9.77979
                         }
                    }
               }
          }
     }
}
MOTION
Frames: 19
Frame Time: 0.01667
43.86888 76.85040 -121.27829 -2.61071 2.17473 -21.25884 -5.48268 10.27456 8.37216 0.00288 0.00387 0.00175 -5.41580 10.45375 17.78490 -1.89650 5.60854 6.23504 -89.11510 -12.19670 -90.14832 -0.12743 35.83858 -100.86164 35.47570 3.57646 -16.16556 33.50117 11.69364 10.20037 56.56453 -8.33830 71.94246 4.77615 38.36339 110.35310 -33.12827 10.88608 -7.34807 23.43237 -47.22366 18.00860 -0.36618 71.75487 7.79894 4.20923 -0.00362 -0.00017 -2.23733 -14.02056 -4.29885 -14.38618 -3.12125 2.50163 14.47537 54.46301 -16.14602 36.65059 0.01447 0.03297 -12.95445 -45.42789 21.87492 
43.72535 75.83453 -121.47432 -2.60337 1.75429 -21.20711 -5.74540 10.94799 8.63752 0.00266 0.00372 0.00119 -5.25648 10.35063 17.37737 -1.94722 5.40104 5.79711 -89.27308 -11.97880 -89.97988 0.25270 35.98140 -101.49249 35.53188 3.67329 -16.04074 33.76550 11.29349 9.81348 56.11365 -8.14463 71.41167 4.21717 38.26836 111.03491 -33.17033 10.94443 -7.40598 23.78410 -48.09578 18.23117 0.58915 73.79296 6.89383 4.01965 -0.00369 -0.00050 -2.29090 -14.67768 -4.38497 -14.73441 -3.98349 2.18468 15.22797 57.68757 -16.48053 39.06234 0.02117 0.03809 -14.77754 -47.41209 22.54599 
43.56631 74.77390 -121.68079 -2.56618 1.31918 -21.12245 -6.03422 11.60192 8.87269 0.00217 0.00361 0.00087 -5.12793 10.30071 16.97798 -1.95639 5.21176 5.38067 -89.44025 -11.73377 -89.87572 0.58477 36.08940 -102.01868 35.66320 3.71945 -15.98088 33.97859 10.91122 9.46304 55.66883 -7.95662 70.94757 3.69143 38.09433 111.64330 -33.18355 10.97097 -7.57932 24.14889 -49.11156 18.49360 2.04294 76.01905 5.44837 3.82072 -0.00350 -0.00072 -2.38852 -15.39902 -4.44369 -15.10967 -4.90646 1.85588 16.19744 61.10925 -17.06548 41.63854 0.02789 0.04113 -16.56322 -49.45647 23.43766 
43.39277 73.70160 -121.88853 -2.50090 0.88500 -21.01061 -6.34097 12.22431 9.07917 0.00166 0.00353 0.00068 -5.03072 10.29563 16.59067 -1.93036 5.03773 4.99143 -89.60899 -11.48001 -89.83220 0.85980 36.17616 -102.43134 35.63218 3.82699 -15.85074 34.14099 10.54980 9.15270 55.23617 -7.76913 70.56191 3.22240 37.85776 112.15326 -33.10189 10.98160 -7.73102 24.51720 -50.21810 18.79234 4.22401 78.32219 3.23617 3.63189 -0.00305 -0.00079 -2.54842 -16.13215 -4.47068 -15.49311 -5.84519 1.52334 17.39413 64.57239 -17.93034 44.35489 0.03355 0.04145 -18.32383 -51.50978 24.48973 
43.18340 72.64935 -122.07855 -2.40445 0.46714 -20.87388 -6.66192 12.80090 9.25953 0.00122 0.00352 0.00090 -4.96739 10.32696 16.21499 -1.88832 4.86379 4.65151 -89.75448 -11.21085 -89.81435 1.09094 36.26050 -102.75835 35.60515 3.92481 -15.70603 34.26516 10.21532 8.91334 54.77829 -7.59203 70.22796 2.82390 37.55527 112.53746 -32.93222 10.95219 -8.00676 24.88540 -51.35371 19.13072 7.55495 80.58067 -0.17319 3.46633 -0.00247 -0.00072 -2.88110 -16.83176 -4.52153 -15.86285 -6.74236 1.19660 18.83123 67.91274 -19.11046 47.17524 0.03729 0.03910 -20.01958 -53.44418 25.72403 
42.96732 71.65204 -122.25476 -2.27909 0.07890 -20.71663 -6.98767 13.32208 9.41627 0.00071 0.00345 0.00100 -4.93742 10.38647 15.85302 -1.81493 4.69344 4.34702 -89.89648 -10.95020 -89.82217 1.27573 36.33033 -102.99899 35.54460 4.04832 -15.55446 34.34872 9.90123 8.72890 54.31601 -7.41395 69.95768 2.51197 37.20828 112.78410 -32.83239 10.92728 -8.12839 25.23685 -52.46569 19.49566 12.77479 82.67057 -5.51074 3.33700 -0.00180 -0.00054 -3.23915 -17.46290 -4.56789 -16.20685 -7.55164 0.88297 20.52265 70.98484 -20.62291 50.05856 0.03845 0.03437 -21.71158 -55.24762 26.98522 
42.74459 70.73619 -122.40932 -2.12638 -0.26697 -20.54211 -7.30934 13.77907 9.55135 0.00017 0.00340 0.00117 -4.93991 10.46528 15.50579 -1.71547 4.52512 4.07966 -90.03597 -10.70564 -89.85390 1.41647 36.38215 -103.15493 35.46843 4.16702 -15.41994 34.38763 9.60767 8.59758 53.86961 -7.24079 69.75633 2.28759 36.83802 112.89262 -32.69741 10.88774 -8.29485 25.55282 -53.50958 19.87017 21.09333 84.46387 -13.97693 3.25580 -0.00117 -0.00031 -3.65263 -17.99429 -4.62760 -16.51696 -8.23664 0.58781 22.44188 73.67379 -22.44098 52.96997 0.03700 0.02819 -23.40674 -56.82936 28.24663 
42.49376 69.96746 -122.51411 -1.94392 -0.55484 -20.34343 -7.62095 14.16170 9.66376 -0.00054 0.00353 0.00190 -4.97419 10.55072 15.17308 -1.60469 4.34719 3.87756 -90.15630 -10.46352 -89.90199 1.51832 36.40749 -103.21017 35.32891 4.33973 -15.32519 34.33181 9.34302 8.56464 53.48941 -7.10806 69.62342 2.13680 36.45145 112.87402 -32.55691 10.84058 -8.36418 25.80189 -54.43180 20.22147 33.87393 85.80352 -26.92992 3.23127 -0.00055 -0.00010 -4.06628 -18.39288 -4.70745 -16.77782 -8.75570 0.31413 24.47902 75.86776 -24.46148 55.87311 0.03304 0.02122 -25.07726 -58.09747 29.47401 
42.24130 69.31460 -122.59099 -1.73864 -0.77771 -20.11974 -7.91344 14.46998 9.75178 -0.00122 0.00353 0.00205 -5.03813 10.63437 14.85864 -1.48885 4.17836 3.69541 -90.25912 -10.26943 -89.98995 1.56123 36.40353 -103.16198 35.24651 4.37199 -15.27464 34.19953 9.09493 8.56684 53.17906 -6.96861 69.57778 2.02783 36.06683 112.77308 -32.41935 10.85967 -8.47788 25.96441 -55.20676 20.52077 6.80783 90.00000 0.00000 3.26528 -0.00005 0.00004 -4.43404 -18.69634 -4.77097 -16.98413 -9.10135 0.06402 26.45223 77.53442 -26.49402 58.74593 0.02739 0.01467 -26.82667 -59.06070 30.58146 
41.98454 68.79881 -122.63252 -1.51418 -0.93225 -19.87474 -8.18438 14.70491 9.81854 -0.00181 0.00349 0.00211 -5.12903 10.70884 14.56348 -1.37948 4.01943 3.53553 -90.33613 -10.12075 -90.11579 1.52988 36.37157 -103.01276 35.11630 4.42404 -15.24686 33.99779 8.86549 8.59540 52.94419 -6.82337 69.60954 1.92742 35.68828 112.63159 -32.26495 10.89109 -8.58943 26.02976 -55.82213 20.75267 6.60283 90.00000 0.00000 3.35747 0.00026 0.00008 -4.74536 -18.87145 -4.82592 -17.13511 -9.27530 -0.15686 28.09267 78.67982 -28.26005 61.58049 0.02100 0.00918 -28.66431 -59.71374 31.54797 
41.69460 68.49748 -122.60732 -1.27495 -1.01492 -19.60399 -8.43255 14.86821 9.86804 -0.00252 0.00360 0.00276 -5.24451 10.76533 14.28402 -1.27450 3.86851 3.44101 -90.39049 -9.99246 -90.28351 1.38282 36.30168 -102.72565 34.96919 4.42685 -15.27734 33.68386 8.67710 8.70609 52.82499 -6.71887 69.70791 1.80490 35.31527 112.47375 -32.00877 10.92975 -8.77936 25.97886 -56.24519 20.89560 6.42456 90.00000 0.00000 3.51088 0.00048 -0.00011 -4.71018 -18.84218 -4.76808 -17.21291 -9.26025 -0.34151 29.06360 79.28584 -29.43030 64.36481 0.01414 0.00448 -30.57571 -59.97174 32.42051 
41.40374 68.33218 -122.54675 -1.03278 -1.03035 -19.30940 -8.65017 14.96860 9.90210 -0.00279 0.00348 0.00280 -5.38211 10.80229 14.02145 -1.17554 3.72493 3.35908 -90.43028 -9.92432 -90.47490 1.15124 36.21960 -102.34932 34.81527 4.40351 -15.39865 33.37581 8.50035 8.81727 52.71618 -6.60079 69.85403 1.67977 34.97744 112.30313 -31.86145 10.93803 -8.91522 25.82030 -56.48409 20.94900 6.30153 90.00000 0.00000 3.72749 0.00050 -0.00034 -4.54517 -18.73244 -4.67489 -17.21755 -9.07422 -0.48889 29.23409 79.40451 -29.86390 67.09758 0.00759 0.00106 -32.74844 -59.98964 32.95797 
41.11010 68.30730 -122.45010 -0.79183 -0.98484 -18.99492 -8.83712 15.01346 9.92435 -0.00287 0.00338 0.00279 -5.53836 10.81838 13.77554 -1.09724 3.59006 3.28898 -90.44794 -9.90679 -90.67141 0.86699 36.13747 -101.92327 34.66932 4.36640 -15.54749 33.09933 8.33742 8.91623 52.59562 -6.48010 70.02898 1.57353 34.69081 112.11633 -31.69495 10.92651 -9.05716 25.57203 -56.55566 20.93006 6.26157 90.00000 0.00000 4.01459 0.00022 -0.00064 -4.15119 -18.50130 -4.48378 -17.15752 -8.74673 -0.59720 28.69961 79.10543 -29.64525 69.79027 0.00181 -0.00111 -35.08088 -59.73533 33.28123 
40.78560 68.47984 -122.30513 -0.53484 -0.84589 -18.65788 -9.00059 14.97252 9.93399 -0.00296 0.00367 0.00338 -5.71072 10.80798 13.54517 -1.04678 3.48427 3.27352 -90.44237 -9.91099 -90.88746 0.54070 36.04871 -101.44218 34.50000 4.40023 -15.73825 32.81263 8.22624 9.03684 52.48140 -6.40557 70.23830 1.51994 34.47030 111.88747 -31.57564 10.81160 -9.18810 25.28842 -56.49612 20.91403 6.36662 90.00000 0.00000 4.41486 -0.00056 -0.00137 -3.52572 -17.91258 -3.82475 -17.03266 -8.33416 -0.67578 27.66313 78.42190 -28.97994 72.44894 -0.00349 -0.00248 -37.51640 -59.12042 33.44813 
40.46371 68.75856 -122.14098 -0.26734 -0.63089 -18.30042 -9.14294 14.86601 9.93301 -0.00283 0.00376 0.00328 -5.89772 10.77174 13.33225 -1.02177 3.40452 3.25356 -90.41740 -9.97216 -91.09957 0.20833 35.96568 -100.96483 34.37836 4.30947 -15.96931 32.53484 8.13172 9.12711 52.35274 -6.32492 70.45127 1.49066 34.31354 111.65618 -31.52206 10.85948 -9.33413 25.00101 -56.33204 20.93281 67.32330 86.19316 -60.75459 4.93440 -0.00189 -0.00173 -3.29201 -17.14165 -3.32118 -16.85651 -7.86674 -0.72723 26.40391 77.42982 -28.13096 75.08833 -0.00806 -0.00290 -40.16448 -58.39287 33.39641 
40.15161 69.14197 -121.96451 0.01981 -0.35320 -17.92058 -9.27543 14.70757 9.91794 -0.00258 0.00389 0.00313 -6.09900 10.70955 13.13486 -1.02590 3.35400 3.23100 -90.37297 -10.06758 -91.29567 -0.10564 35.89368 -100.52783 34.25731 4.26442 -16.19436 32.26781 8.05855 9.18470 52.20185 -6.24199 70.64737 1.45442 34.20303 111.45203 -31.51837 10.87149 -9.49611 24.93435 -56.06030 21.19509 8.73404 90.00000 0.00000 6.86649 -0.04331 -0.01581 -4.03160 -15.82570 -4.62969 -16.65718 -7.37930 -0.76097 25.11344 76.20675 -27.27243 77.73167 -0.01192 -0.00256 -42.95537 -57.49892 33.19981 
39.83462 69.68571 -121.77078 0.34564 -0.01703 -17.49543 -9.40855 14.51364 9.87303 -0.00216 0.00468 0.00367 -6.31775 10.61283 12.94236 -1.04062 3.37067 3.25454 -90.33181 -10.13891 -91.51637 -0.40077 35.83140 -100.11948 34.16059 4.18266 -16.41846 31.97422 8.06495 9.25804 52.04712 -6.21308 70.84013 1.37437 34.12053 111.27518 -31.48973 10.95073 -9.74273 25.24507 -55.66677 21.87141 5.32910 85.58518 6.77178 9.80563 -0.11439 -0.00474 -9.98800 -5.10549 6.12595 -16.45558 -6.89024 -0.79866 23.86555 74.78234 -26.46788 80.39312 -0.01573 -0.00173 -45.90139 -56.43623 32.88754 
39.55612 70.28784 -121.57350 0.71182 0.37150 -17.01652 -9.53920 14.29590 9.78664 -0.00184 0.00492 0.00365 -6.55454 10.48341 12.75096 -1.07742 3.38807 3.25409 -90.26920 -10.22464 -91.69643 -0.66274 35.78823 -99.75736 34.11782 4.03240 -16.69652 31.70167 8.06707 9.32389 51.86297 -6.18628 70.97038 1.25680 34.06380 111.13559 -31.55691 10.98551 -9.84535 25.98944 -55.14685 23.01291 -17.25050 83.38719 33.62381 13.56229 -0.18983 0.02383 -10.94970 -8.02875 -3.05935 -16.28010 -6.41969 -0.85209 22.73003 73.20326 -25.76628 83.08443 -0.01913 -0.00041 -49.00471 -55.37294 32.40407 
39.29730 70.91870 -121.37144 1.11421 0.80895 -16.48168 -9.66294 14.06162 9.65518 -0.00160 0.00509 0.00370 -6.80637 10.32437 12.55320 -1.14991 3.38876 3.22952 -90.16706 -10.30115 -91.82117 -0.88665 35.76484 -99.44057 34.09499 3.87478 -16.96071 31.45396 8.05613 9.40051 51.65830 -6.17753 71.02522 1.12122 34.02657 111.02431 -31.61061 10.99924 -9.96505 26.92846 -54.55431 24.41366 -22.95802 81.36996 42.60714 16.51677 -0.13089 0.04296 -24.91326 3.08311 5.82301 -16.14239 -5.97771 -0.92380 21.74897 71.51949 -25.19981 85.81712 -0.02173 0.00143 -52.18272 -54.29639 31.85220 
